<svg width="40" height="40" viewBox="0 0 40 40" fill="none" xmlns="http://www.w3.org/2000/svg">
<circle cx="20" cy="20" r="20" fill="url(#paint0_linear_0_148)"/>
<path fill-rule="evenodd" clip-rule="evenodd" d="M20 40C31.0457 40 40 31.0457 40 20C40 8.9543 31.0457 0 20 0C8.9543 0 0 8.9543 0 20C0 31.0457 8.9543 40 20 40ZM20 29C24.9706 29 29 24.9706 29 20C29 15.0294 24.9706 11 20 11C15.0294 11 11 15.0294 11 20C11 24.9706 15.0294 29 20 29Z" fill="#234191"/>
<defs>
<linearGradient id="paint0_linear_0_148" x1="33" y1="2.5" x2="6.5" y2="35.5" gradientUnits="userSpaceOnUse">
<stop stop-color="#1391D0"/>
<stop offset="1" stop-color="#2E46C4"/>
</linearGradient>
</defs>
</svg>
